<svg width="22" height="18" viewBox="0 0 22 18" fill="none" xmlns="http://www.w3.org/2000/svg">
<path d="M10.5469 18C10.4136 18.0013 10.2822 17.969 10.166 17.9063C9.74609 17.6813 0 12.3656 0 5.625C0 4.44441 0.386938 3.29375 1.106 2.336C1.82507 1.37826 2.83981 0.661992 4.00648 0.288657C5.17315 -0.0846785 6.43261 -0.096152 7.60645 0.255861C8.78029 0.607875 9.80901 1.30553 10.5469 2.25C11.2847 1.30553 12.3135 0.607875 13.4873 0.255861C14.6611 -0.096152 15.9206 -0.0846785 17.0873 0.288657C18.2539 0.661992 19.2687 1.37826 19.9877 2.336C20.7068 3.29375 21.0938 4.44441 21.0938 5.625C21.0938 8.49375 19.3652 11.4375 15.957 14.3813C14.4094 15.7169 12.7243 16.898 10.9277 17.9063C10.8115 17.969 10.6802 18.0013 10.5469 18ZM5.85938 1.5C4.71977 1.5 3.62685 1.9346 2.82103 2.70818C2.01521 3.48177 1.5625 4.53098 1.5625 5.625C1.5625 10.8 8.78906 15.3469 10.5469 16.3781C12.3047 15.3469 19.5312 10.8 19.5312 5.625C19.5322 4.6714 19.1889 3.74695 18.5598 3.00894C17.9307 2.27093 17.0548 1.76495 16.0809 1.57708C15.107 1.38922 14.0954 1.53107 13.2182 1.97851C12.341 2.42595 11.6524 3.15134 11.2695 4.03125C11.2107 4.16881 11.1105 4.28646 10.9819 4.36926C10.8532 4.45207 10.7018 4.49628 10.5469 4.49628C10.392 4.49628 10.2406 4.45207 10.1119 4.36926C9.98321 4.28646 9.88308 4.16881 9.82422 4.03125C9.49905 3.27962 8.94854 2.63772 8.24261 2.18703C7.53668 1.73635 6.70715 1.49721 5.85938 1.5Z" fill="#5F5F5F"/>
</svg>
