<svg width="18" height="18" viewBox="0 0 18 18" fill="none" xmlns="http://www.w3.org/2000/svg">
<path fill-rule="evenodd" clip-rule="evenodd" d="M1.99999 7C1.99999 5.67392 2.52677 4.40215 3.46446 3.46447C4.40214 2.52678 5.67391 2 6.99999 2C8.32607 2 9.59784 2.52678 10.5355 3.46447C11.4732 4.40215 12 5.67392 12 7C12 8.32608 11.4732 9.59785 10.5355 10.5355C9.59784 11.4732 8.32607 12 6.99999 12C5.67391 12 4.40214 11.4732 3.46446 10.5355C2.52677 9.59785 1.99999 8.32608 1.99999 7ZM6.99999 2.20582e-07C5.89125 2.1098e-06 4.79837 0.263375 3.81134 0.768432C2.82431 1.27349 1.97138 2.00578 1.32276 2.90501C0.674152 3.80423 0.24842 4.84467 0.080626 5.94064C-0.0871681 7.03661 0.00777569 8.15676 0.357639 9.20885C0.707502 10.2609 1.30228 11.2149 2.09298 11.9921C2.88369 12.7693 3.84771 13.3476 4.90567 13.6794C5.96362 14.0111 7.08524 14.0868 8.17816 13.9001C9.27108 13.7135 10.304 13.27 11.192 12.606L16.292 17.707C16.4795 17.8946 16.7339 18.0001 16.9991 18.0002C17.2644 18.0003 17.5188 17.895 17.7065 17.7075C17.8941 17.52 17.9996 17.2656 17.9997 17.0004C17.9998 16.7351 17.8945 16.4806 17.707 16.293L12.607 11.193C13.3853 10.1525 13.8587 8.91592 13.9741 7.62167C14.0895 6.32741 13.8424 5.02658 13.2604 3.86481C12.6784 2.70304 11.7846 1.72618 10.6789 1.0436C9.57321 0.361026 8.29938 -0.000325925 6.99999 2.20582e-07Z" fill="black"/>
</svg>
